<svg xmlns="http://www.w3.org/2000/svg" viewBox="0 0 800 600" width="800" height="600" role="img" aria-hidden="true"><defs><linearGradient id="g" x1="0" y1="0" x2="1" y2="1"><stop offset="0" stop-color="#161a10"/><stop offset="1" stop-color="#3c5a0d"/></linearGradient></defs><rect width="800" height="600" fill="url(#g)"/><circle cx="700" cy="90" r="180" fill="#c5f82a" opacity="0.25"/><circle cx="90" cy="540" r="150" fill="#8a7bff" opacity=".22"/><rect x="120" y="130" width="560" height="360" rx="22" fill="#ffffff" opacity="0.96"/><rect x="120" y="130" width="560" height="40" rx="22" fill="#e7e9e2" opacity=".7"/><circle cx="144" cy="150" r="6" fill="#ff6b5e"/><circle cx="164" cy="150" r="6" fill="#ffc542"/><circle cx="184" cy="150" r="6" fill="#c5f82a"/><rect x="200" y="200" width="400" height="60" rx="16" fill="#0c0d0b"/><circle cx="235" cy="230" r="8" fill="#c5f82a"/><rect x="270" y="223" width="200" height="14" rx="7" fill="#ffffff" opacity=".5"/><rect x="200" y="280" width="400" height="60" rx="16" fill="#c5f82a"/><circle cx="235" cy="310" r="8" fill="#0c0d0b"/><rect x="270" y="303" width="170" height="14" rx="7" fill="#0c0d0b" opacity=".5"/><rect x="200" y="360" width="400" height="60" rx="16" fill="#0c0d0b"/><circle cx="235" cy="390" r="8" fill="#c5f82a"/><rect x="270" y="383" width="140" height="14" rx="7" fill="#ffffff" opacity=".5"/></svg>